<svg width="249" height="48" viewBox="0 0 249 48" fill="none" xmlns="http://www.w3.org/2000/svg">
<g clip-path="url(#clip0_6_15)">
<path d="M24 23.1C20.36 19.7 15.76 17.32 10.64 16.4C8.22 15.98 6 17.9 6 20.36V32.84C6 36.2 7.44 37.96 9.42 38.22C14.42 38.86 18.96 40.92 22.68 43.96C23.38 44.54 24.52 44.6 25.22 44.04C28.96 40.98 33.54 38.88 38.58 38.24C40.46 37.98 42 36.12 42 34.2V20.36C42 17.9 39.78 15.98 37.36 16.4C32.24 17.32 27.64 19.7 24 23.1ZM24 16C27.32 16 30 13.32 30 10C30 6.68 27.32 4 24 4C20.68 4 18 6.68 18 10C18 13.32 20.68 16 24 16Z" fill="white"/>
</g>
<path d="M83.292 11.94H84.076L84.328 18.38H83.292C82.8813 16.7373 82.088 15.4493 80.912 14.516C79.736 13.5827 78.3173 13.116 76.656 13.116C75.5173 13.116 74.5 13.34 73.604 13.788C72.708 14.236 71.952 14.88 71.336 15.72C70.72 16.56 70.244 17.5867 69.908 18.8C69.5907 20.0133 69.432 21.3853 69.432 22.916C69.432 25.9213 70.0573 28.236 71.308 29.86C72.5587 31.4653 74.3693 32.268 76.74 32.268C80.3427 32.268 82.6573 30.3547 83.684 26.528H84.832V33.5H83.852L83.208 31.288C81.248 32.9493 78.8773 33.78 76.096 33.78C74.5093 33.78 73.072 33.528 71.784 33.024C70.5147 32.52 69.4227 31.8107 68.508 30.896C67.612 29.9627 66.912 28.8333 66.408 27.508C65.9227 26.1827 65.68 24.708 65.68 23.084C65.68 21.3853 65.9413 19.836 66.464 18.436C66.9867 17.036 67.7147 15.832 68.648 14.824C69.6 13.816 70.7293 13.0413 72.036 12.5C73.3613 11.94 74.8173 11.66 76.404 11.66C77.524 11.66 78.5787 11.8187 79.568 12.136C80.5573 12.4533 81.6307 12.9667 82.788 13.676L83.292 11.94ZM96.2212 25.212C95.1572 25.6227 94.2519 26.024 93.5052 26.416C92.7772 26.808 92.1892 27.2 91.7412 27.592C91.2932 27.984 90.9666 28.376 90.7612 28.768C90.5746 29.16 90.4812 29.5613 90.4812 29.972C90.4812 30.588 90.6866 31.092 91.0972 31.484C91.5079 31.876 92.0492 32.072 92.7212 32.072C93.2066 32.072 93.6546 31.9507 94.0652 31.708C94.4946 31.4653 94.8679 31.1387 95.1852 30.728C95.5026 30.2987 95.7546 29.804 95.9412 29.244C96.1279 28.6653 96.2212 28.0587 96.2212 27.424V25.212ZM96.2212 24.008V22.86C96.2212 20.5827 95.2506 19.444 93.3092 19.444C92.9919 19.444 92.7212 19.472 92.4972 19.528C92.2732 19.584 92.0866 19.6773 91.9372 19.808C91.7879 19.9387 91.6479 20.1253 91.5172 20.368C91.4052 20.6107 91.2932 20.9093 91.1812 21.264C90.9759 21.8053 90.7706 22.1693 90.5652 22.356C90.3786 22.524 90.0986 22.608 89.7252 22.608C88.7919 22.608 88.3252 22.1413 88.3252 21.208C88.3252 20.312 88.8012 19.6213 89.7532 19.136C90.7052 18.632 92.0586 18.38 93.8132 18.38C95.6799 18.38 97.0052 18.716 97.7892 19.388C98.5732 20.0413 98.9652 21.1613 98.9652 22.748V29.02C98.9652 31.148 99.3852 32.212 100.225 32.212C100.487 32.212 100.739 32.184 100.981 32.128C101.224 32.0533 101.429 31.876 101.597 31.596L101.989 32.268C101.765 32.6973 101.355 33.0613 100.757 33.36C100.16 33.64 99.5346 33.78 98.8812 33.78C98.0599 33.78 97.4439 33.5187 97.0332 32.996C96.6412 32.4733 96.4452 31.736 96.4452 30.784H96.3052C95.8199 31.6987 95.1479 32.4267 94.2892 32.968C93.4306 33.4907 92.4786 33.752 91.4332 33.752C90.2572 33.752 89.3332 33.4533 88.6612 32.856C87.9892 32.2587 87.6532 31.456 87.6532 30.448C87.6532 30 87.7279 29.5707 87.8772 29.16C88.0452 28.7493 88.3066 28.3573 88.6612 27.984C89.0159 27.6107 89.4826 27.2467 90.0612 26.892C90.6399 26.5187 91.3492 26.1453 92.1892 25.772L96.2212 24.008ZM108.141 29.02C108.141 29.804 108.16 30.42 108.197 30.868C108.234 31.316 108.328 31.6613 108.477 31.904C108.645 32.128 108.878 32.2773 109.177 32.352C109.476 32.4267 109.896 32.4827 110.437 32.52V33.5H102.989V32.52C103.53 32.4827 103.96 32.4267 104.277 32.352C104.594 32.2773 104.837 32.128 105.005 31.904C105.173 31.68 105.276 31.3627 105.313 30.952C105.369 30.5227 105.397 29.9533 105.397 29.244V25.66C105.397 24.596 105.378 23.7093 105.341 23C105.322 22.2907 105.276 21.8053 105.201 21.544C105.145 21.3013 105.08 21.1147 105.005 20.984C104.93 20.8347 104.809 20.7227 104.641 20.648C104.473 20.5547 104.249 20.4987 103.969 20.48C103.708 20.4427 103.362 20.424 102.933 20.424V19.444L107.497 18.38L107.861 21.18H108.001C108.841 20.228 109.718 19.528 110.633 19.08C111.566 18.6133 112.593 18.38 113.713 18.38C114.889 18.38 115.878 18.6227 116.681 19.108C117.484 19.5747 118.044 20.256 118.361 21.152H118.473C119.164 20.2747 120.004 19.5933 120.993 19.108C121.982 18.6227 123.037 18.38 124.157 18.38C125.034 18.38 125.828 18.5293 126.537 18.828C127.265 19.108 127.816 19.5 128.189 20.004C128.525 20.4333 128.758 21.0027 128.889 21.712C129.038 22.4027 129.113 23.3547 129.113 24.568V29.02C129.113 29.7853 129.132 30.392 129.169 30.84C129.225 31.288 129.328 31.6333 129.477 31.876C129.626 32.1187 129.85 32.2773 130.149 32.352C130.466 32.4267 130.896 32.4827 131.437 32.52V33.5H123.989V32.52C124.512 32.5013 124.932 32.4547 125.249 32.38C125.566 32.2867 125.809 32.128 125.977 31.904C126.145 31.6613 126.248 31.3347 126.285 30.924C126.341 30.5133 126.369 29.9533 126.369 29.244V25.716C126.369 24.652 126.313 23.756 126.201 23.028C126.089 22.2813 125.902 21.684 125.641 21.236C125.38 20.7693 125.034 20.4333 124.605 20.228C124.194 20.0227 123.69 19.92 123.093 19.92C122.272 19.92 121.497 20.1533 120.769 20.62C120.06 21.068 119.5 21.6747 119.089 22.44C118.996 22.6267 118.912 22.8133 118.837 23C118.781 23.168 118.734 23.364 118.697 23.588C118.66 23.7933 118.632 24.0453 118.613 24.344C118.613 24.6427 118.613 25.016 118.613 25.464V29.02C118.613 29.7853 118.632 30.392 118.669 30.84C118.706 31.288 118.8 31.6333 118.949 31.876C119.117 32.1187 119.36 32.2773 119.677 32.352C119.994 32.4267 120.424 32.4827 120.965 32.52V33.5H113.517V32.52C114.04 32.4827 114.46 32.4267 114.777 32.352C115.094 32.2773 115.328 32.128 115.477 31.904C115.645 31.68 115.748 31.3627 115.785 30.952C115.841 30.5227 115.869 29.9533 115.869 29.244V25.716C115.869 24.6333 115.813 23.728 115.701 23C115.589 22.2533 115.402 21.656 115.141 21.208C114.898 20.7413 114.572 20.4147 114.161 20.228C113.75 20.0227 113.246 19.92 112.649 19.92C111.809 19.92 111.016 20.1533 110.269 20.62C109.541 21.068 108.99 21.6747 108.617 22.44C108.524 22.6267 108.44 22.8133 108.365 23C108.309 23.168 108.262 23.364 108.225 23.588C108.188 23.7933 108.16 24.0453 108.141 24.344C108.141 24.6427 108.141 25.016 108.141 25.464V29.02ZM137.884 20.676H137.996C138.593 19.9667 139.237 19.4067 139.928 18.996C140.619 18.5853 141.421 18.38 142.336 18.38C143.4 18.38 144.371 18.576 145.248 18.968C146.144 19.3413 146.919 19.8733 147.572 20.564C148.225 21.2547 148.729 22.076 149.084 23.028C149.457 23.9613 149.644 24.988 149.644 26.108C149.644 27.2467 149.457 28.292 149.084 29.244C148.711 30.1773 148.197 30.98 147.544 31.652C146.891 32.324 146.116 32.8467 145.22 33.22C144.324 33.5933 143.353 33.78 142.308 33.78C141.449 33.78 140.665 33.64 139.956 33.36C139.265 33.0613 138.612 32.5853 137.996 31.932V36.02C137.996 36.7667 138.033 37.364 138.108 37.812C138.183 38.26 138.332 38.6053 138.556 38.848C138.78 39.0907 139.097 39.2587 139.508 39.352C139.937 39.4453 140.497 39.5013 141.188 39.52V40.5H132.564V39.52C133.124 39.5013 133.572 39.4453 133.908 39.352C134.263 39.2587 134.533 39.0907 134.72 38.848C134.925 38.6053 135.065 38.2693 135.14 37.84C135.215 37.4293 135.252 36.888 135.252 36.216V25.744C135.252 24.6613 135.233 23.7747 135.196 23.084C135.177 22.3933 135.131 21.9173 135.056 21.656C134.963 21.208 134.748 20.9093 134.412 20.76C134.076 20.592 133.441 20.508 132.508 20.508V19.556L137.884 18.492V20.676ZM138.724 21.488C138.481 21.8613 138.295 22.3093 138.164 22.832C138.052 23.336 137.996 23.9987 137.996 24.82V27.004C137.996 27.508 138.005 27.9467 138.024 28.32C138.061 28.6747 138.108 28.9827 138.164 29.244C138.22 29.5053 138.295 29.7387 138.388 29.944C138.481 30.1493 138.603 30.3453 138.752 30.532C139.181 31.1293 139.695 31.596 140.292 31.932C140.889 32.2493 141.515 32.408 142.168 32.408C143.456 32.408 144.492 31.8667 145.276 30.784C146.079 29.7013 146.48 28.18 146.48 26.22C146.48 25.2493 146.368 24.372 146.144 23.588C145.939 22.7853 145.64 22.104 145.248 21.544C144.856 20.9653 144.38 20.5173 143.82 20.2C143.279 19.8827 142.672 19.724 142 19.724C141.328 19.724 140.703 19.8827 140.124 20.2C139.564 20.4987 139.097 20.928 138.724 21.488ZM163.972 23.14C163.972 22.3747 163.953 21.7773 163.916 21.348C163.878 20.9 163.776 20.564 163.608 20.34C163.458 20.0973 163.225 19.9387 162.908 19.864C162.609 19.7707 162.189 19.696 161.648 19.64V18.66H166.716V27.256C166.716 28.32 166.725 29.188 166.744 29.86C166.781 30.532 166.828 31.036 166.884 31.372C166.921 31.6147 166.977 31.8107 167.052 31.96C167.145 32.0907 167.276 32.2027 167.444 32.296C167.612 32.3707 167.826 32.4267 168.088 32.464C168.368 32.4827 168.722 32.492 169.152 32.492V33.472L164.532 33.808L164.224 30.448H164.112C163.402 31.6053 162.581 32.4547 161.648 32.996C160.733 33.5187 159.772 33.78 158.764 33.78C157.98 33.78 157.214 33.6307 156.468 33.332C155.74 33.0333 155.189 32.632 154.816 32.128C154.498 31.7173 154.265 31.148 154.116 30.42C153.985 29.692 153.92 28.7493 153.92 27.592V23.14C153.92 22.3747 153.901 21.7773 153.864 21.348C153.826 20.9 153.724 20.564 153.556 20.34C153.406 20.0973 153.173 19.9387 152.856 19.864C152.557 19.7707 152.137 19.696 151.596 19.64V18.66H156.664V26.304C156.664 28.3387 156.897 29.8133 157.364 30.728C157.849 31.6427 158.614 32.1 159.66 32.1C161.302 32.1 162.581 31.0267 163.496 28.88C163.589 28.656 163.664 28.4507 163.72 28.264C163.776 28.0773 163.822 27.872 163.86 27.648C163.897 27.424 163.925 27.172 163.944 26.892C163.962 26.612 163.972 26.276 163.972 25.884V23.14ZM172.174 33.5H171.558V28.684H172.258C172.986 31.316 174.311 32.632 176.234 32.632C176.98 32.632 177.568 32.4547 177.998 32.1C178.446 31.7267 178.67 31.1667 178.67 30.42C178.67 30.14 178.623 29.9067 178.53 29.72C178.455 29.5147 178.296 29.3093 178.054 29.104C177.83 28.88 177.503 28.628 177.074 28.348C176.663 28.068 176.112 27.7133 175.422 27.284C174.787 26.892 174.236 26.528 173.77 26.192C173.303 25.856 172.911 25.52 172.594 25.184C172.276 24.8293 172.034 24.456 171.866 24.064C171.716 23.672 171.642 23.2147 171.642 22.692C171.642 22.0573 171.744 21.4787 171.95 20.956C172.174 20.4147 172.472 19.9573 172.846 19.584C173.219 19.2107 173.658 18.9213 174.162 18.716C174.666 18.492 175.216 18.38 175.814 18.38C176.318 18.38 176.84 18.464 177.382 18.632C177.923 18.7813 178.399 18.9867 178.81 19.248L179.37 18.66H179.902V22.692H179.174C178.763 21.5533 178.315 20.7413 177.83 20.256C177.344 19.7707 176.747 19.528 176.038 19.528C175.403 19.528 174.89 19.696 174.498 20.032C174.124 20.368 173.938 20.8347 173.938 21.432C173.938 21.7493 173.984 22.0293 174.078 22.272C174.19 22.496 174.358 22.72 174.582 22.944C174.806 23.168 175.086 23.4013 175.422 23.644C175.776 23.868 176.196 24.1293 176.682 24.428C177.484 24.932 178.166 25.38 178.726 25.772C179.304 26.164 179.771 26.556 180.126 26.948C180.48 27.3213 180.742 27.7133 180.91 28.124C181.078 28.5347 181.162 29.0013 181.162 29.524C181.162 30.8493 180.732 31.8947 179.874 32.66C179.015 33.4067 177.886 33.78 176.486 33.78C175.03 33.78 173.779 33.36 172.734 32.52L172.174 33.5ZM201.61 33.5H183.522V32.436C184.175 32.4173 184.698 32.3613 185.09 32.268C185.5 32.1747 185.818 32.016 186.042 31.792C186.266 31.568 186.415 31.2507 186.49 30.84C186.564 30.4293 186.602 29.8973 186.602 29.244V16.196C186.602 15.5427 186.564 15.02 186.49 14.628C186.434 14.2173 186.303 13.9 186.098 13.676C185.911 13.4333 185.631 13.2747 185.258 13.2C184.884 13.1067 184.399 13.0413 183.802 13.004V11.94H192.314V13.004C191.716 13.0227 191.231 13.0787 190.858 13.172C190.503 13.2653 190.223 13.4333 190.018 13.676C189.831 13.9187 189.7 14.2547 189.626 14.684C189.57 15.1133 189.542 15.6827 189.542 16.392V28.46C189.542 29.244 189.616 29.888 189.766 30.392C189.934 30.8773 190.204 31.26 190.578 31.54C190.97 31.8013 191.483 31.988 192.118 32.1C192.752 32.1933 193.555 32.24 194.526 32.24C195.59 32.24 196.486 32.184 197.214 32.072C197.942 31.9413 198.548 31.7267 199.034 31.428C199.538 31.1107 199.93 30.6813 200.21 30.14C200.508 29.58 200.76 28.8613 200.966 27.984H202.03L201.61 33.5ZM208.989 29.048C208.989 29.776 209.017 30.364 209.073 30.812C209.148 31.2413 209.279 31.5867 209.465 31.848C209.652 32.0907 209.913 32.2587 210.249 32.352C210.585 32.4453 211.033 32.5013 211.593 32.52V33.5H203.557V32.52C204.117 32.5013 204.575 32.4453 204.929 32.352C205.284 32.24 205.555 32.072 205.741 31.848C205.947 31.6053 206.077 31.2787 206.133 30.868C206.208 30.4387 206.245 29.8973 206.245 29.244V25.66C206.245 24.5773 206.227 23.6907 206.189 23C206.171 22.2907 206.124 21.8053 206.049 21.544C205.956 21.1147 205.741 20.8253 205.405 20.676C205.069 20.508 204.435 20.424 203.501 20.424V19.444L208.989 18.38V29.048ZM205.769 12.696C205.769 12.2107 205.937 11.8 206.273 11.464C206.609 11.128 207.02 10.96 207.505 10.96C207.991 10.96 208.401 11.128 208.737 11.464C209.073 11.8 209.241 12.2107 209.241 12.696C209.241 13.1813 209.073 13.592 208.737 13.928C208.401 14.264 207.991 14.432 207.505 14.432C207.02 14.432 206.609 14.264 206.273 13.928C205.937 13.592 205.769 13.1813 205.769 12.696ZM218.196 29.104C218.196 29.8693 218.215 30.476 218.252 30.924C218.29 31.3533 218.383 31.6893 218.532 31.932C218.7 32.156 218.934 32.3053 219.232 32.38C219.55 32.4547 219.979 32.5107 220.52 32.548V33.5H213.184V32.548C213.707 32.5107 214.118 32.4547 214.416 32.38C214.734 32.3053 214.976 32.156 215.144 31.932C215.312 31.708 215.415 31.3907 215.452 30.98C215.508 30.5693 215.536 30.0093 215.536 29.3V25.576C215.536 23.3547 215.48 22.0013 215.368 21.516C215.312 21.2733 215.238 21.0773 215.144 20.928C215.07 20.76 214.948 20.6387 214.78 20.564C214.612 20.4707 214.398 20.4147 214.136 20.396C213.875 20.3587 213.539 20.34 213.128 20.34V19.444L217.608 18.38L217.944 21.152H218.056C218.766 20.2747 219.596 19.5933 220.548 19.108C221.5 18.6227 222.536 18.38 223.656 18.38C224.515 18.38 225.299 18.52 226.008 18.8C226.718 19.08 227.259 19.4627 227.632 19.948C227.95 20.3773 228.174 20.9373 228.304 21.628C228.435 22.3 228.5 23.2333 228.5 24.428V29.104C228.5 29.8693 228.519 30.476 228.556 30.924C228.612 31.3533 228.715 31.6893 228.864 31.932C229.014 32.156 229.238 32.3053 229.536 32.38C229.854 32.4547 230.264 32.5107 230.768 32.548V33.5H223.516V32.548C224.039 32.5293 224.45 32.4827 224.748 32.408C225.066 32.3147 225.299 32.156 225.448 31.932C225.616 31.708 225.719 31.3907 225.756 30.98C225.812 30.5507 225.84 29.9907 225.84 29.3V25.604C225.84 24.54 225.784 23.644 225.672 22.916C225.56 22.188 225.374 21.6 225.112 21.152C224.87 20.704 224.543 20.3867 224.132 20.2C223.722 19.9947 223.227 19.892 222.648 19.892C221.808 19.892 221.034 20.116 220.324 20.564C219.634 20.9933 219.092 21.5907 218.7 22.356C218.607 22.5427 218.523 22.72 218.448 22.888C218.392 23.056 218.346 23.252 218.308 23.476C218.271 23.7 218.243 23.9613 218.224 24.26C218.206 24.54 218.196 24.904 218.196 25.352V29.104ZM241.197 32.52C241.813 32.52 242.233 32.492 242.457 32.436C242.7 32.38 242.821 32.3053 242.821 32.212C242.802 32.0627 242.653 31.792 242.373 31.4C242.093 31.008 241.729 30.5413 241.281 30L238.313 26.416L237.277 27.396V29.048C237.277 29.776 237.305 30.364 237.361 30.812C237.436 31.2413 237.557 31.5867 237.725 31.848C237.912 32.0907 238.173 32.2587 238.509 32.352C238.864 32.4453 239.321 32.5013 239.881 32.52V33.5H231.929V32.52C232.489 32.5013 232.937 32.4453 233.273 32.352C233.628 32.2587 233.898 32.0907 234.085 31.848C234.29 31.6053 234.43 31.2787 234.505 30.868C234.58 30.4573 234.617 29.916 234.617 29.244V17.512C234.617 16.0933 234.598 15.02 234.561 14.292C234.542 13.564 234.449 13.0693 234.281 12.808C234.113 12.5467 233.833 12.3973 233.441 12.36C233.049 12.304 232.526 12.276 231.873 12.276V11.324L237.277 10.26V25.632L239.881 23.084C240.721 22.244 241.346 21.628 241.757 21.236C242.168 20.8253 242.373 20.5173 242.373 20.312C242.373 20.1067 242.177 19.948 241.785 19.836C241.393 19.7053 240.833 19.64 240.105 19.64V18.66H247.385V19.64C247.03 19.64 246.722 19.6587 246.461 19.696C246.2 19.7333 245.948 19.808 245.705 19.92C245.481 20.032 245.238 20.1907 244.977 20.396C244.716 20.5827 244.417 20.8253 244.081 21.124L240.049 24.708L245.593 30.98C245.854 31.2973 246.088 31.5587 246.293 31.764C246.517 31.9507 246.732 32.1 246.937 32.212C247.161 32.324 247.394 32.408 247.637 32.464C247.898 32.5013 248.206 32.52 248.561 32.52V33.5H241.197V32.52Z" fill="white"/>
<defs>
<clipPath id="clip0_6_15">
<rect width="48" height="48" fill="white"/>
</clipPath>
</defs>
</svg>
